<svg width="60" height="60" viewBox="0 0 60 60" fill="none" xmlns="http://www.w3.org/2000/svg">
<path fill-rule="evenodd" clip-rule="evenodd" d="M7.66602 7.66797H52.3327V52.3346H7.66602V7.66797ZM6.66602 6.66797H7.66602H52.3327H53.3327V7.66797V52.3346V53.3346H52.3327H7.66602H6.66602V52.3346V7.66797V6.66797ZM46.3125 47.0215L29.9993 30.7084L13.6862 47.0215L12.9791 46.3144L29.2922 30.0013L12.9791 13.6882L13.6862 12.9811L29.9993 29.2942L46.3125 12.9811L47.0196 13.6882L30.7065 30.0013L47.0196 46.3144L46.3125 47.0215Z" fill="#50DF6B" fill-opacity="0.5"/>
<path d="M52.3327 7.66797H53.3327V6.66797H52.3327V7.66797ZM7.66602 7.66797V6.66797H6.66602V7.66797H7.66602ZM52.3327 52.3346V53.3346H53.3327V52.3346H52.3327ZM7.66602 52.3346H6.66602V53.3346H7.66602V52.3346ZM6.66602 6.66797V5.66797H5.66602V6.66797H6.66602ZM53.3327 6.66797H54.3327V5.66797H53.3327V6.66797ZM53.3327 53.3346V54.3346H54.3327V53.3346H53.3327ZM6.66602 53.3346H5.66602V54.3346H6.66602V53.3346ZM29.9993 30.7084L30.7065 30.0013L29.9993 29.2942L29.2922 30.0013L29.9993 30.7084ZM46.3125 47.0215L45.6054 47.7286L46.3125 48.4358L47.0196 47.7286L46.3125 47.0215ZM13.6862 47.0215L12.9791 47.7286L13.6862 48.4358L14.3933 47.7286L13.6862 47.0215ZM12.9791 46.3144L12.272 45.6073L11.5649 46.3144L12.272 47.0215L12.9791 46.3144ZM29.2922 30.0013L29.9993 30.7084L30.7065 30.0013L29.9993 29.2942L29.2922 30.0013ZM12.9791 13.6882L12.272 12.9811L11.5649 13.6882L12.272 14.3953L12.9791 13.6882ZM13.6862 12.9811L14.3933 12.274L13.6862 11.5669L12.9791 12.274L13.6862 12.9811ZM29.9993 29.2942L29.2922 30.0013L29.9993 30.7084L30.7065 30.0013L29.9993 29.2942ZM46.3125 12.9811L47.0196 12.274L46.3125 11.5669L45.6054 12.274L46.3125 12.9811ZM47.0196 13.6882L47.7267 14.3953L48.4338 13.6882L47.7267 12.9811L47.0196 13.6882ZM30.7065 30.0013L29.9993 29.2942L29.2922 30.0013L29.9993 30.7084L30.7065 30.0013ZM47.0196 46.3144L47.7267 47.0215L48.4338 46.3144L47.7267 45.6073L47.0196 46.3144ZM52.3327 6.66797H7.66602V8.66797H52.3327V6.66797ZM53.3327 52.3346V7.66797H51.3327V52.3346H53.3327ZM7.66602 53.3346H52.3327V51.3346H7.66602V53.3346ZM6.66602 7.66797V52.3346H8.66602V7.66797H6.66602ZM7.66602 5.66797H6.66602V7.66797H7.66602V5.66797ZM52.3327 5.66797H7.66602V7.66797H52.3327V5.66797ZM53.3327 5.66797H52.3327V7.66797H53.3327V5.66797ZM54.3327 7.66797V6.66797H52.3327V7.66797H54.3327ZM54.3327 52.3346V7.66797H52.3327V52.3346H54.3327ZM54.3327 53.3346V52.3346H52.3327V53.3346H54.3327ZM52.3327 54.3346H53.3327V52.3346H52.3327V54.3346ZM7.66602 54.3346H52.3327V52.3346H7.66602V54.3346ZM6.66602 54.3346H7.66602V52.3346H6.66602V54.3346ZM5.66602 52.3346V53.3346H7.66602V52.3346H5.66602ZM5.66602 7.66797V52.3346H7.66602V7.66797H5.66602ZM5.66602 6.66797V7.66797H7.66602V6.66797H5.66602ZM29.2922 31.4155L45.6054 47.7286L47.0196 46.3144L30.7065 30.0013L29.2922 31.4155ZM14.3933 47.7286L30.7065 31.4155L29.2922 30.0013L12.9791 46.3144L14.3933 47.7286ZM12.272 47.0215L12.9791 47.7286L14.3933 46.3144L13.6862 45.6073L12.272 47.0215ZM28.5851 29.2942L12.272 45.6073L13.6862 47.0215L29.9993 30.7084L28.5851 29.2942ZM12.272 14.3953L28.5851 30.7084L29.9993 29.2942L13.6862 12.9811L12.272 14.3953ZM12.9791 12.274L12.272 12.9811L13.6862 14.3953L14.3933 13.6882L12.9791 12.274ZM30.7065 28.5871L14.3933 12.274L12.9791 13.6882L29.2922 30.0013L30.7065 28.5871ZM45.6054 12.274L29.2922 28.5871L30.7065 30.0013L47.0196 13.6882L45.6054 12.274ZM47.7267 12.9811L47.0196 12.274L45.6054 13.6882L46.3125 14.3953L47.7267 12.9811ZM31.4136 30.7084L47.7267 14.3953L46.3125 12.9811L29.9993 29.2942L31.4136 30.7084ZM47.7267 45.6073L31.4136 29.2942L29.9993 30.7084L46.3125 47.0215L47.7267 45.6073ZM47.0196 47.7286L47.7267 47.0215L46.3125 45.6073L45.6054 46.3144L47.0196 47.7286Z" fill="#50DF6B" fill-opacity="0.5"/>
</svg>
