<svg width="97" height="79" viewBox="0 0 97 79" fill="none" xmlns="http://www.w3.org/2000/svg">
<path d="M44 35H2V19.044L32.5 23.2143L2 2H44V35Z" stroke="#5BFF7B" stroke-width="3" stroke-linecap="round" stroke-linejoin="round"/>
<path d="M95 2H53V35H95V19.044" stroke="#5BFF7B" stroke-width="3" stroke-linecap="round" stroke-linejoin="round"/>
<path d="M64.5 20.2143L95 16.044V35H53V2H95L83.5 17.6164L64.5 20.2143ZM64.5 20.2143L66 27" stroke="#5BFF7B" stroke-width="3" stroke-linecap="round" stroke-linejoin="round"/>
<path d="M13.5 62.2143L44 58.044V77H2L2 44H44L32.5 59.6164L13.5 62.2143ZM13.5 62.2143L15 69" stroke="#5BFF7B" stroke-width="3" stroke-linecap="round" stroke-linejoin="round"/>
<path d="M7 25.5L20.5 28.5" stroke="#5BFF7B" stroke-width="2" stroke-linecap="round" stroke-linejoin="round"/>
<path d="M53 44H95V59.956L64.5 55.7857L95 77H53V44Z" stroke="#5BFF7B" stroke-width="3" stroke-linecap="round" stroke-linejoin="round"/>
<path d="M76 50L89.5 53" stroke="#5BFF7B" stroke-width="2" stroke-linecap="round" stroke-linejoin="round"/>
</svg>
